<?xml version="1.0"?>
<svg xmlns="http://www.w3.org/2000/svg" viewBox="0 0 64 64" width="512" height="512"><g id="flat"><rect x="7" y="57" width="5" height="4" style="fill:#394d5c"/><rect x="32" y="57" width="5" height="4" style="fill:#394d5c"/><rect x="3" y="51" width="38" height="6" style="fill:#98a1a1"/><path d="M13,48a3,3,0,0,1-6,0c0-1.657,3-4,3-4S13,46.343,13,48Z" style="fill:#f98c96"/><path d="M24,48a3,3,0,0,1-6,0c0-1.657,3-4,3-4S24,46.343,24,48Z" style="fill:#f98c96"/><path d="M35,48a3,3,0,0,1-6,0c0-1.657,3-4,3-4S35,46.343,35,48Z" style="fill:#f98c96"/><path d="M61,29H38.429L39,25H3L4.632,36.424A3,3,0,0,0,7.6,39H34.4a3,3,0,0,0,2.97-2.576l.2-1.424H61Z" style="fill:#dd3e46"/><rect x="5" y="34" width="16" height="2" style="fill:#f98c96"/><rect x="23" y="34" width="2" height="2" style="fill:#f98c96"/><rect x="27" y="34" width="2" height="2" style="fill:#f98c96"/><rect x="4" y="30" width="13" height="2" style="fill:#f98c96"/><rect x="51" y="29" width="10" height="6" style="fill:#394d5c"/><path d="M20,21a1,1,0,0,1-1-1,5.966,5.966,0,0,1,1.155-3.534A4.072,4.072,0,0,0,21,14a2.175,2.175,0,0,0-.735-1.822A4.118,4.118,0,0,1,19,9a5.978,5.978,0,0,1,1.154-3.534A4.066,4.066,0,0,0,21,3a1,1,0,0,1,2,0,5.978,5.978,0,0,1-1.154,3.534A4.066,4.066,0,0,0,21,9a2.175,2.175,0,0,0,.735,1.822A4.118,4.118,0,0,1,23,14a5.966,5.966,0,0,1-1.155,3.534A4.072,4.072,0,0,0,21,20,1,1,0,0,1,20,21Z" style="fill:#ffd782"/><path d="M13,22a1,1,0,0,1-1-1,4.79,4.79,0,0,1,1.2-3.1A2.865,2.865,0,0,0,14,16a2.865,2.865,0,0,0-.8-1.9A4.79,4.79,0,0,1,12,11a4.793,4.793,0,0,1,1.2-3.1A2.865,2.865,0,0,0,14,6a1,1,0,0,1,2,0,4.793,4.793,0,0,1-1.2,3.1A2.865,2.865,0,0,0,14,11a2.865,2.865,0,0,0,.8,1.9,4.6,4.6,0,0,1,0,6.2A2.865,2.865,0,0,0,14,21,1,1,0,0,1,13,22Z" style="fill:#ffd782"/><path d="M27,22a1,1,0,0,1-1-1,4.79,4.79,0,0,1,1.2-3.1A2.865,2.865,0,0,0,28,16a2.865,2.865,0,0,0-.8-1.9A4.79,4.79,0,0,1,26,11a4.793,4.793,0,0,1,1.2-3.1A2.865,2.865,0,0,0,28,6a1,1,0,0,1,2,0,4.793,4.793,0,0,1-1.2,3.1A2.865,2.865,0,0,0,28,11a2.865,2.865,0,0,0,.8,1.9,4.6,4.6,0,0,1,0,6.2A2.865,2.865,0,0,0,28,21,1,1,0,0,1,27,22Z" style="fill:#ffd782"/><rect x="15" y="54" width="2" height="3" style="fill:#394d5c"/><rect x="11" y="54" width="2" height="3" style="fill:#394d5c"/><rect x="19" y="54" width="2" height="3" style="fill:#394d5c"/><rect x="27" y="54" width="2" height="3" style="fill:#394d5c"/><rect x="23" y="54" width="2" height="3" style="fill:#394d5c"/><rect x="31" y="54" width="2" height="3" style="fill:#394d5c"/></g></svg>
